<svg version="1.1" id="Layer_1" xmlns="http://www.w3.org/2000/svg" xmlns:xlink="http://www.w3.org/1999/xlink" x="0px" y="0px"
	 width="100%" viewBox="0 0 362 330" enable-background="new 0 0 362 330" xml:space="preserve">
<path fill="#FEFEFE" opacity="1.000000" stroke="none" 
	d="
M205.000000,331.000000 
	C136.666672,331.000000 68.833359,331.000000 1.000027,331.000000 
	C1.000018,221.000031 1.000018,111.000061 1.000009,1.000072 
	C121.666618,1.000048 242.333237,1.000048 362.999878,1.000024 
	C362.999939,110.999931 362.999939,220.999863 362.999969,330.999878 
	C310.500000,331.000000 258.000000,331.000000 205.000000,331.000000 
M155.192932,286.404724 
	C155.192932,286.404724 155.552979,286.403015 156.010941,286.943817 
	C157.374390,287.142426 158.737839,287.341034 160.730972,287.760620 
	C161.172699,287.781342 161.614426,287.802032 162.524063,288.302307 
	C163.382309,288.336517 164.240540,288.370697 165.847092,288.686096 
	C166.909149,288.747925 167.971191,288.809784 169.426437,289.258759 
	C170.287994,289.192291 171.149567,289.125824 172.849228,289.203461 
	C176.868622,289.380341 180.888000,289.557190 185.574112,289.933899 
	C188.791733,289.388733 187.788086,287.936859 186.428314,285.566345 
	C186.319122,284.587799 186.223572,283.607544 186.098694,282.631012 
	C184.592468,270.852325 184.020432,270.407104 171.215134,271.294586 
	C170.460342,271.253540 169.705551,271.212494 168.421661,270.702057 
	C167.255981,270.638306 166.090317,270.574585 164.308685,270.270294 
	C163.870926,270.236450 163.433167,270.202606 162.329910,269.807770 
	C157.864243,268.648956 153.398575,267.490143 148.303802,266.015289 
	C146.740005,265.583832 145.176193,265.152344 143.199463,264.140686 
	C140.134918,262.779388 137.070374,261.418091 133.730423,259.839478 
	C133.730423,259.839478 133.379715,259.830536 132.947968,259.280975 
	C128.697144,256.752960 124.446312,254.224930 120.202324,251.847244 
	C120.202324,251.847244 120.274307,251.715073 120.047066,251.102753 
	C116.717094,248.105209 113.146362,245.331406 110.108650,242.062286 
	C104.280083,235.789703 98.753967,229.236053 92.936577,222.337112 
	C92.936577,222.337112 92.564850,222.016754 92.535873,221.352768 
	C91.412399,219.443527 90.288918,217.534271 89.128014,215.113159 
	C88.848099,214.699173 88.568184,214.285187 88.185501,213.130798 
	C86.227753,208.182861 83.806618,203.361053 82.417580,198.258301 
	C80.162941,189.975677 78.584595,181.508957 76.858047,172.273254 
	C76.947884,166.602005 77.037720,160.930756 77.234550,155.419205 
	C77.234550,155.419205 77.198830,155.175476 78.124275,155.029785 
	C78.748848,155.029755 79.373413,155.029709 80.543694,155.464401 
	C84.002075,156.634888 87.460457,157.805359 90.918831,158.975845 
	C91.180611,158.655685 91.442390,158.335541 91.704163,158.015381 
	C90.575302,156.175095 89.446442,154.334793 88.320297,152.180237 
	C88.320297,152.180237 88.089638,151.966766 88.034653,151.235718 
	C85.742767,147.041962 83.450890,142.848206 81.108917,138.045975 
	C80.702682,137.365448 80.296448,136.684906 79.846230,135.273834 
	C78.633194,132.797913 77.420151,130.321991 75.934708,127.290047 
	C65.176163,132.691895 54.990665,137.806015 44.805168,142.920151 
	C44.874119,143.378540 44.943073,143.836929 45.012024,144.295319 
	C49.710892,145.685318 54.409760,147.075317 59.307999,148.812317 
	C59.307999,148.812317 59.690136,148.931168 59.561039,149.840973 
	C56.623215,173.940399 60.846329,196.875488 70.962646,218.797867 
	C72.232750,221.550217 74.274658,223.946396 76.328529,227.131210 
	C76.939346,228.429794 77.550163,229.728378 78.230087,231.706192 
	C86.163956,244.291504 95.461922,255.615494 108.015236,263.993866 
	C108.015236,263.993866 108.082077,263.973480 108.343842,264.558044 
	C109.890717,265.609955 111.437584,266.661896 113.273003,268.038666 
	C113.273003,268.038666 113.698433,268.127045 114.039009,268.712097 
	C116.019051,269.830536 117.999092,270.948944 120.153351,272.266113 
	C120.153351,272.266113 120.405907,272.188232 120.796021,272.788940 
	C125.215614,274.926300 129.635208,277.063660 134.223480,279.298401 
	C134.223480,279.298401 134.386368,279.191589 134.801056,279.770386 
	C136.523788,280.387146 138.246521,281.003906 140.498993,281.993164 
	C141.129776,282.058197 141.760544,282.123260 142.836945,282.791656 
	C145.732086,283.648071 148.627213,284.504517 151.842636,285.804321 
	C152.847534,285.960968 153.852432,286.117615 155.192932,286.404724 
M277.325104,115.305763 
	C277.622864,115.507324 277.920624,115.708878 278.665863,116.094467 
	C278.931335,116.295166 279.230438,116.396187 279.695618,116.336990 
	C279.695618,116.336990 279.568909,116.265221 279.545349,116.954117 
	C279.650024,117.638611 279.754700,118.323105 279.376129,119.473244 
	C280.651154,121.957832 281.926178,124.442421 283.647583,127.437592 
	C283.978119,128.717743 284.308685,129.997910 284.331360,132.099533 
	C285.744843,136.747177 287.158295,141.394821 288.863251,146.733536 
	C288.942719,147.475266 289.022156,148.216995 288.496002,149.454132 
	C288.664307,155.128494 288.755981,160.806686 289.039520,166.475296 
	C289.149353,168.671387 289.693359,170.845779 290.099884,173.769119 
	C289.974030,174.496735 289.848175,175.224335 289.046844,176.156128 
	C289.020966,178.102798 288.995056,180.049454 289.025513,182.726898 
	C288.701447,184.147644 288.377380,185.568390 287.477234,187.425049 
	C287.415741,188.123947 287.354279,188.822845 287.377136,190.152969 
	C287.217377,190.765671 287.057617,191.378357 286.283630,192.342682 
	C285.292511,195.745102 284.301392,199.147507 283.388367,202.803558 
	C283.388367,202.803558 283.230499,203.016937 282.535248,203.273575 
	C281.417511,205.166473 279.896759,206.950897 279.346191,208.996445 
	C279.055603,210.076080 280.456451,211.610947 281.608551,213.166946 
	C282.104126,213.717957 282.599701,214.268951 283.041779,215.577591 
	C284.775116,218.831802 286.548798,222.036621 291.414062,222.215652 
	C291.605591,222.485229 291.797119,222.754807 292.092194,223.725540 
	C292.678711,224.069748 293.265259,224.413956 293.851776,224.758163 
	C294.143707,223.997635 294.435638,223.237122 294.720825,222.203262 
	C294.720825,222.203262 294.904297,222.000534 295.438263,221.683426 
	C295.552124,221.297653 295.666016,220.911880 295.763580,220.225571 
	C295.763580,220.225571 295.954132,219.992569 296.699005,219.918625 
	C300.006165,214.911545 302.854828,209.737289 302.687653,202.797195 
	C303.089874,201.528732 303.492096,200.260254 304.481842,198.608215 
	C304.546936,197.938919 304.612061,197.269623 304.704102,195.852875 
	C304.909088,194.880737 305.114105,193.908615 306.004181,192.796173 
	C307.886292,187.680786 310.374237,182.642654 307.974762,176.091248 
	C308.169098,173.430069 308.363434,170.768890 309.176117,167.774307 
	C308.942841,165.148178 308.709595,162.522034 308.270691,159.045624 
	C308.170197,156.702957 308.069672,154.360275 308.556427,151.508301 
	C307.937195,146.537903 309.467529,141.080658 305.053040,136.535828 
	C304.985474,136.243225 304.843201,135.993103 304.633881,135.321030 
	C304.633881,135.321030 304.372620,134.936951 304.388336,134.205307 
	C304.323151,133.477905 304.257965,132.750519 304.594391,131.660492 
	C304.323029,131.123779 304.051666,130.587082 303.498322,129.481628 
	C303.203156,128.469543 302.907959,127.457458 302.834381,125.647934 
	C301.861053,123.434525 300.887726,121.221115 299.710083,118.546616 
	C299.710663,118.215675 299.711243,117.884735 299.710327,116.894531 
	C299.388275,116.628944 299.066193,116.363358 298.332458,115.590553 
	C298.024384,114.775528 297.716309,113.960510 298.084290,112.868584 
	C298.238037,112.164894 298.391815,111.461205 298.545593,110.757515 
	C297.943054,111.001457 297.340485,111.245392 296.296600,111.186623 
	C295.998322,111.008286 295.700043,110.829956 295.198578,110.600189 
	C295.198578,110.600189 295.408173,110.600273 295.391846,109.912956 
	C294.816772,108.640289 294.241699,107.367630 294.230011,105.815132 
	C293.788361,105.216927 293.346710,104.618713 292.686249,103.559341 
	C292.414673,103.131554 292.143066,102.703758 291.815704,101.727928 
	C291.557800,101.481552 291.299927,101.235176 290.328857,100.767090 
	C289.200012,101.167717 288.071136,101.568344 286.216980,101.979500 
	C284.785126,103.534492 283.353302,105.089485 281.607971,106.936989 
	C281.607971,106.936989 281.205750,107.085434 280.657745,107.233070 
	C280.459320,107.541740 280.260895,107.850403 279.743896,108.700562 
	C278.759155,109.786636 277.774445,110.872711 276.140717,112.111908 
	C275.862671,112.756126 275.584625,113.400345 275.306580,114.044556 
	C275.991730,114.230316 276.676880,114.416084 277.359619,114.680481 
	C277.359619,114.680481 277.311707,114.742874 277.325104,115.305763 
M295.857971,232.385696 
	C295.186981,232.397751 294.515991,232.409805 293.213562,232.138168 
	C280.566772,220.590012 267.919983,209.041870 256.328400,198.457245 
	C258.362946,190.885941 260.223114,183.963547 262.319885,176.408859 
	C262.243042,167.922363 262.166199,159.435867 262.232239,150.131287 
	C259.497986,142.417328 256.763763,134.703369 253.961197,126.308044 
	C253.014801,125.093208 252.068420,123.878372 251.024231,122.153282 
	C250.682251,121.768433 250.340271,121.383591 250.050568,120.331848 
	C249.090332,119.150261 248.130096,117.968674 247.072083,116.911125 
	C247.072083,116.911125 247.211823,116.837532 247.006439,116.179932 
	C241.505112,111.060333 235.870773,106.075027 230.534317,100.788979 
	C222.950302,93.276619 213.401505,89.640274 203.496048,86.823006 
	C191.370300,83.374252 178.921555,83.530968 166.778122,86.120850 
	C153.220795,89.012291 140.743851,94.684334 130.901184,104.890770 
	C130.901184,104.890770 130.794189,104.741470 130.157349,104.982155 
	C127.467720,107.996140 124.778084,111.010124 121.484390,114.308609 
	C119.720963,116.565407 117.957535,118.822205 115.463692,121.120285 
	C111.790001,126.917938 107.725258,132.547195 107.491066,140.458496 
	C107.228622,141.299896 106.966187,142.141296 106.030205,143.152817 
	C105.640823,145.754486 105.251434,148.356171 104.991035,151.710205 
	C104.977882,152.467087 104.964729,153.223969 104.688629,154.753922 
	C104.972824,163.121384 105.257019,171.488861 104.947220,180.069275 
	C105.254173,180.715775 105.561119,181.362289 106.227783,182.580673 
	C106.640335,183.822830 107.052887,185.064972 107.442986,186.730743 
	C107.442986,186.730743 107.815735,186.933258 107.794121,187.658432 
	C108.404152,189.169937 109.014183,190.681458 109.530220,192.663208 
	C109.530220,192.663208 109.882050,192.989029 109.868500,193.729065 
	C110.957085,196.369141 112.045670,199.009201 113.036125,202.454758 
	C113.834167,205.145081 113.109482,208.888870 117.984711,209.340775 
	C118.012299,209.505966 118.039886,209.671143 118.018250,210.606277 
	C118.405540,213.517471 119.148926,216.110901 123.460495,216.363800 
	C125.609779,218.675095 127.759064,220.986389 129.942932,224.025330 
	C131.235550,229.635880 137.767166,234.152863 143.640671,233.116241 
	C144.742126,233.802368 145.843582,234.488495 147.051865,235.862701 
	C148.162994,237.232773 148.676102,240.412811 152.033813,237.390579 
	C153.680527,238.060791 155.327240,238.730988 157.094055,240.053528 
	C158.715881,240.412796 160.337708,240.772064 162.662048,241.037033 
	C163.098053,241.206818 163.534042,241.376587 164.176712,242.159348 
	C166.114807,242.449387 168.052902,242.739426 170.871994,242.951874 
	C176.580505,243.299713 182.289017,243.647552 188.385117,244.502655 
	C189.600098,244.207108 190.815079,243.911560 192.716339,243.254822 
	C194.223343,242.983902 195.730362,242.712967 197.767776,242.611862 
	C198.234512,242.356201 198.701248,242.100540 199.877686,241.937912 
	C200.573166,241.783508 201.268631,241.629089 202.138336,242.094391 
	C207.491089,240.530136 212.899765,239.127960 218.165497,237.311386 
	C219.943863,236.697906 221.359985,235.034378 223.226364,233.375992 
	C223.742371,233.219223 224.258392,233.062454 225.549545,233.040680 
	C230.323029,234.376083 235.096512,235.711487 240.455719,237.196396 
	C240.971542,237.795471 241.487350,238.394547 241.999985,239.761292 
	C243.389938,240.817047 244.779892,241.872787 246.756134,243.108627 
	C247.157440,243.562164 247.558762,244.015701 247.977325,245.150406 
	C249.271713,246.116196 250.566116,247.081970 252.452484,248.276154 
	C253.321030,249.177109 254.189560,250.078064 254.385788,251.251587 
	C252.254135,251.509003 250.122482,251.766434 247.250259,251.966629 
	C246.511047,251.984665 245.771851,252.002701 244.391052,251.729675 
	C242.568573,252.347305 240.327209,252.489075 238.994049,253.662582 
	C232.203217,259.640137 228.560776,258.742584 226.221405,250.173798 
	C226.005936,249.384567 226.263809,248.412170 225.911301,247.725250 
	C225.123932,246.190933 224.089752,244.783264 223.156128,243.324005 
	C221.727585,244.308594 219.871445,244.996948 218.947235,246.330948 
	C215.600189,251.162048 211.998581,255.955139 209.613907,261.265900 
	C208.032623,264.787445 202.477264,266.756622 204.954834,272.681183 
	C205.645920,273.768158 206.336990,274.855133 207.093689,276.637482 
	C207.824066,276.990723 208.554459,277.343964 209.309616,277.740051 
	C209.309616,277.740051 209.306076,277.680511 209.163071,278.448059 
	C211.458359,279.616211 213.753632,280.784332 215.996460,281.990021 
	C215.996460,281.990021 216.045425,281.943176 216.067825,282.647339 
	C219.139114,287.446564 219.641266,287.739441 222.938751,286.492889 
	C223.629105,286.986115 224.319458,287.479370 225.299332,288.472076 
	C225.651581,288.604218 226.003830,288.736389 226.882645,288.938141 
	C227.261353,289.277527 227.640060,289.616913 228.012955,290.755005 
	C229.347931,291.833801 231.181122,294.083221 231.922668,293.767609 
	C233.986908,292.889099 235.598007,290.945801 237.296692,289.500732 
	C233.043274,283.818146 233.316849,280.883453 238.779373,279.333740 
	C244.169907,277.804413 249.099945,276.150848 253.072784,272.051605 
	C254.143784,270.946472 256.388763,270.774902 257.117340,269.579193 
	C259.652893,265.417877 263.004547,263.010986 268.566895,263.275909 
	C269.665283,263.998688 270.763702,264.721497 271.872223,265.847412 
	C271.872223,265.847412 271.926361,266.246948 272.101746,266.932648 
	C274.092041,267.612000 276.082336,268.291321 278.539520,269.080017 
	C278.539520,269.080017 278.985291,269.256744 279.190063,269.973267 
	C281.799622,269.749817 284.409149,269.526367 287.623871,269.061432 
	C287.840088,269.082001 288.056274,269.102570 288.913513,269.441345 
	C292.940765,270.759399 295.607361,269.809265 296.316254,264.532043 
	C297.993042,262.360931 299.669830,260.189789 302.050751,257.832672 
	C305.311035,252.853531 304.840393,244.436218 300.614410,240.506790 
	C299.462708,238.868225 298.310974,237.229660 297.424377,235.088760 
	C296.930237,234.391281 296.436066,233.693787 295.857971,232.385696 
M235.342270,83.129723 
	C233.944672,84.352928 232.547089,85.576126 231.149506,86.799332 
	C231.309677,87.298782 231.469849,87.798225 231.630005,88.297676 
	C236.483597,88.297676 241.337173,88.297676 247.064240,88.506622 
	C251.050522,88.624184 255.036819,88.741745 259.612152,89.363060 
	C262.582855,89.409050 266.563538,91.781448 267.477234,86.673714 
	C267.916504,84.218185 267.228577,81.561028 267.132568,78.109161 
	C267.241425,75.203178 267.350281,72.297195 268.029388,68.920692 
	C268.087646,65.942139 268.145905,62.963577 268.236450,59.183533 
	C268.256042,58.114422 268.275635,57.045315 268.730682,55.594376 
	C268.488312,54.923744 268.245911,54.253109 268.003540,53.582478 
	C267.411713,54.431393 266.819855,55.280308 265.729218,56.603867 
	C263.986267,57.818203 261.987823,58.789799 260.554565,60.298367 
	C257.737976,63.263020 255.278061,62.906246 252.117920,60.714706 
	C234.327286,48.376984 214.407104,41.587860 192.944000,40.339008 
	C149.775238,37.827198 114.106712,53.473972 86.365356,86.644753 
	C81.320938,92.676445 77.415184,99.660439 72.467903,106.966660 
	C77.274841,108.574089 80.853493,109.732635 84.405258,110.968483 
	C88.499695,112.393158 91.166290,111.041771 93.635086,107.454857 
	C97.544769,101.774467 101.530510,95.980293 106.392868,91.148903 
	C136.264755,61.467369 171.793671,51.534443 212.681030,61.999657 
	C223.482468,64.764313 233.620544,69.362495 242.915833,76.085022 
	C240.421753,78.595810 238.218338,80.813980 235.342270,83.129723 
M231.713333,239.234772 
	C231.492172,240.257721 231.270996,241.280655 231.049820,242.303574 
	C231.974472,241.899673 232.899124,241.495773 233.823792,241.091873 
	C233.337784,240.427979 232.851776,239.764084 231.713333,239.234772 
z"/>
<path fill="#283742" opacity="1.000000" stroke="none" 
	d="
M104.951584,153.980850 
	C104.964729,153.223969 104.977882,152.467087 105.158043,151.045380 
	C105.784615,147.914612 106.244186,145.448654 106.703751,142.982697 
	C106.966187,142.141296 107.228622,141.299896 107.725113,139.880890 
	C110.704147,133.228531 113.449135,127.153770 116.194122,121.079002 
	C117.957535,118.822205 119.720963,116.565407 122.144569,114.148148 
	C125.467896,110.905617 128.131042,107.823547 130.794189,104.741470 
	C130.794189,104.741470 130.901184,104.890770 131.205109,104.899673 
	C134.317841,104.599876 137.778091,105.226212 139.813812,103.807899 
	C146.028336,99.478180 152.548203,96.240166 159.805023,94.023521 
	C163.884125,92.777534 167.401199,88.498863 171.345840,88.239624 
	C181.311447,87.584702 191.375900,88.425133 201.400116,88.690094 
	C202.054703,88.707397 202.720993,88.868401 203.352768,89.058945 
	C205.872391,89.818871 207.504211,91.092354 206.501633,94.130737 
	C206.246948,94.902580 206.546417,95.857277 206.627182,97.425262 
	C211.892197,93.428505 216.960587,94.778069 221.531982,96.987701 
	C224.448013,98.397186 226.674500,101.282310 229.124313,103.596695 
	C233.711639,107.930443 238.236618,112.330208 242.787521,116.702507 
	C242.497086,117.079018 242.206650,117.455528 241.916214,117.832039 
	C243.681412,117.500534 245.446625,117.169029 247.211823,116.837524 
	C247.211823,116.837532 247.072083,116.911125 247.074600,117.226669 
	C248.050827,118.694389 249.024551,119.846573 249.998276,120.998749 
	C250.340271,121.383591 250.682251,121.768433 251.061951,122.779449 
	C252.076294,124.600212 253.052902,125.794807 254.029510,126.989410 
	C256.763763,134.703369 259.497986,142.417328 261.829895,150.810516 
	C261.273560,158.174881 261.032440,164.859879 261.022644,171.545197 
	C261.019989,173.376648 261.710724,175.209137 262.083252,177.041138 
	C260.223114,183.963547 258.362946,190.885941 256.328400,198.457245 
	C267.919983,209.041870 280.566772,220.590012 293.576782,232.526031 
	C294.330536,233.198303 294.721069,233.482712 295.241150,234.022552 
	C295.966888,234.715698 296.563080,235.153397 297.159271,235.591095 
	C298.310974,237.229660 299.462708,238.868225 300.897552,241.157455 
	C301.235992,247.211639 301.291290,252.615158 301.346619,258.018677 
	C299.669830,260.189789 297.993042,262.360931 295.849854,264.937683 
	C293.027191,266.422394 290.670929,267.501526 288.069275,268.219727 
	C284.701721,266.976837 281.596313,266.019440 278.434174,265.317688 
	C278.078064,265.238647 277.401459,266.603790 276.499054,267.295471 
	C274.725189,266.943451 273.325775,266.595184 271.926361,266.246948 
	C271.926361,266.246948 271.872223,265.847412 271.886658,265.272156 
	C270.224854,262.592712 268.665955,260.373718 266.794312,258.460754 
	C266.292999,257.948364 264.837341,258.369720 263.536285,258.234680 
	C262.161438,257.228302 261.070160,256.349609 259.823547,255.239746 
	C259.359985,254.812729 259.051758,254.616867 258.669067,254.389465 
	C258.594635,254.357925 258.480347,254.243546 258.392639,254.027191 
	C257.936066,253.531525 257.567169,253.252228 257.101501,252.680344 
	C256.355835,251.918182 255.706970,251.448593 255.058090,250.979004 
	C254.189560,250.078064 253.321030,249.177109 252.056702,247.873215 
	C250.427322,246.469925 249.193710,245.469574 247.960083,244.469238 
	C247.558762,244.015701 247.157440,243.562164 246.296204,242.738586 
	C244.558578,241.243576 243.280869,240.118607 242.003159,238.993637 
	C241.487350,238.394547 240.971542,237.795471 240.056213,236.807785 
	C236.787842,233.776169 233.918991,231.133179 230.801712,228.261307 
	C228.593643,229.962753 226.684021,231.434219 224.774399,232.905685 
	C224.258392,233.062454 223.742371,233.219223 222.737122,233.641815 
	C220.756775,234.374741 219.265686,234.841827 217.333374,235.203354 
	C213.259186,236.750305 209.626205,238.402832 205.855042,240.165482 
	C205.716827,240.275589 205.406036,240.107315 204.943024,240.079010 
	C202.709320,240.648758 200.938644,241.246796 199.167999,241.844864 
	C198.701248,242.100540 198.234512,242.356201 197.259003,242.171631 
	C193.973984,241.217560 190.890427,239.054199 188.858246,243.364838 
	C188.432877,243.601578 188.185989,243.749908 187.997528,243.995392 
	C182.289017,243.647552 176.580505,243.299713 170.150665,242.786652 
	C167.609589,242.263062 165.789810,241.904709 163.970047,241.546356 
	C163.534042,241.376587 163.098053,241.206818 162.075226,240.847443 
	C159.983597,240.238953 158.478775,239.820084 156.973953,239.401199 
	C155.327240,238.730988 153.680527,238.060791 151.452209,237.106506 
	C149.562088,236.273163 148.253555,235.723892 146.945038,235.174622 
	C145.843582,234.488495 144.742126,233.802368 143.128784,232.800995 
	C138.380707,229.423065 134.144531,226.360367 129.908356,223.297668 
	C127.759064,220.986389 125.609779,218.675095 123.083015,215.885529 
	C121.159508,213.550278 119.613487,211.693298 118.067459,209.836304 
	C118.039886,209.671143 118.012299,209.505966 117.783844,208.838364 
	C116.400581,206.163681 115.218185,203.991425 114.172165,201.516937 
	C114.115936,197.782455 114.010300,194.303406 109.882050,192.989029 
	C109.882050,192.989029 109.530220,192.663208 109.864380,192.250977 
	C109.404274,190.203568 108.610008,188.568420 107.815735,186.933258 
	C107.815735,186.933258 107.442986,186.730743 107.807449,186.283356 
	C108.239937,184.121033 108.561440,182.369736 108.321999,180.698853 
	C107.857529,177.457733 105.692421,173.715683 106.701920,171.154892 
	C109.204399,164.806870 105.234840,159.687698 104.951584,153.980850 
M151.277283,115.373573 
	C151.277283,115.373573 151.449554,115.614624 150.726562,115.312973 
	C145.238327,118.751625 137.709976,118.598694 135.527481,127.520302 
	C133.848755,134.382507 128.358810,140.232559 125.256325,146.857101 
	C123.480270,150.649384 122.085625,155.152863 125.990646,159.677368 
	C125.880783,160.115677 125.770912,160.553970 124.888031,161.041092 
	C124.259995,162.349548 123.134933,163.649170 123.111481,164.968369 
	C123.067955,167.416031 123.533157,169.902344 124.022942,172.324753 
	C126.162712,182.907593 127.049553,194.048309 136.736374,201.363388 
	C137.441605,201.895950 137.443924,203.399979 138.157349,203.874176 
	C141.524368,206.112137 145.025253,208.148682 148.601196,210.374069 
	C148.601196,210.374069 148.748428,210.458282 148.376740,211.202606 
	C149.318649,216.857513 156.383377,215.032028 158.469131,219.401642 
	C158.692413,219.869415 160.074890,219.898315 160.920349,219.900986 
	C161.282761,219.902145 161.647049,219.314789 162.667618,218.843521 
	C163.109985,218.874725 163.552353,218.905914 164.288757,219.418411 
	C164.622742,219.572678 164.956711,219.726944 165.654419,219.838837 
	C165.654419,219.838837 166.001938,219.954285 166.145721,220.690781 
	C169.172760,221.651535 172.146210,222.860229 175.236511,223.528442 
	C186.239960,225.907684 197.233032,226.389465 207.462189,220.775894 
	C210.994171,218.837616 213.834900,215.639694 217.756989,212.919861 
	C228.151520,209.563324 234.276199,202.556732 235.887375,190.937759 
	C237.619019,186.622955 239.350647,182.308151 241.818115,177.831650 
	C245.690445,170.513397 244.063492,162.730026 243.391632,155.138931 
	C243.144470,152.346329 241.177582,149.705933 239.809753,146.309128 
	C238.938385,144.763580 237.952484,143.270752 237.212997,141.664490 
	C227.506149,120.580246 211.259583,108.535416 188.066956,106.215919 
	C175.722290,104.981331 164.405396,108.507362 152.847260,114.138893 
	C152.398788,114.614868 151.950333,115.090851 151.277283,115.373573 
z"/>
<path fill="#5289B3" opacity="1.000000" stroke="none" 
	d="
M268.295197,55.976204 
	C268.275635,57.045315 268.256042,58.114422 267.900604,59.852501 
	C267.529541,63.478046 267.494324,66.434631 267.459106,69.391212 
	C267.350281,72.297195 267.241425,75.203178 266.813599,78.846329 
	C266.181549,82.316887 265.868500,85.050285 265.580048,87.569130 
	C263.136292,88.049973 261.079681,88.454643 259.023102,88.859306 
	C255.036819,88.741745 251.050522,88.624184 246.407593,88.118568 
	C242.275696,87.365013 238.800430,86.999512 235.078781,86.608101 
	C235.454376,85.173431 235.734665,84.102798 236.014954,83.032158 
	C238.218338,80.813980 240.421753,78.595810 242.915833,76.085022 
	C233.620544,69.362495 223.482468,64.764313 212.681030,61.999657 
	C171.793671,51.534443 136.264755,61.467369 106.392868,91.148903 
	C101.530510,95.980293 97.544769,101.774467 93.635086,107.454857 
	C91.166290,111.041771 88.499695,112.393158 84.405258,110.968483 
	C80.853493,109.732635 77.274841,108.574089 72.467903,106.966660 
	C77.415184,99.660439 81.320938,92.676445 86.365356,86.644753 
	C114.106712,53.473972 149.775238,37.827198 192.944000,40.339008 
	C214.407104,41.587860 234.327286,48.376984 252.117920,60.714706 
	C255.278061,62.906246 257.737976,63.263020 260.554565,60.298367 
	C261.987823,58.789799 263.986267,57.818203 266.323242,56.364578 
	C267.376587,56.075596 267.835876,56.025902 268.295197,55.976204 
z"/>
<path fill="#5088B3" opacity="1.000000" stroke="none" 
	d="
M168.950760,271.171417 
	C169.705551,271.212494 170.460342,271.253540 171.681244,271.766754 
	C173.087952,272.814301 173.971954,273.751068 174.977951,273.908508 
	C183.800125,275.289398 183.941696,275.349579 184.969574,284.013245 
	C185.164276,285.654266 185.012192,287.336395 184.978027,289.181061 
	C184.935928,289.362549 184.907394,289.734070 184.907394,289.734070 
	C180.888000,289.557190 176.868622,289.380341 172.256348,288.884094 
	C170.786743,288.667053 169.909988,288.769348 169.033249,288.871643 
	C167.971191,288.809784 166.909149,288.747925 165.370544,288.289703 
	C163.948059,287.869781 163.002106,287.846252 162.056152,287.822723 
	C161.614426,287.802032 161.172699,287.781342 160.327301,287.384369 
	C159.288864,286.677795 158.654083,286.347473 157.800674,285.744995 
	C156.669983,285.341309 155.757935,285.209717 154.637497,285.072083 
	C154.429108,285.066040 154.013016,285.039703 153.774384,284.749786 
	C149.820938,283.702698 146.106125,282.945496 142.391327,282.188293 
	C141.760544,282.123260 141.129776,282.058197 140.145462,281.480774 
	C137.990082,280.376129 136.188217,279.783844 134.386368,279.191589 
	C134.386368,279.191589 134.223480,279.298401 133.957825,278.943512 
	C129.263412,276.455170 124.834656,274.321686 120.405907,272.188232 
	C120.405907,272.188232 120.153351,272.266113 120.035973,271.799927 
	C117.845207,270.264832 115.771820,269.195923 113.698433,268.127045 
	C113.698433,268.127045 113.273003,268.038666 113.083344,267.548859 
	C111.289810,266.030518 109.685944,265.002014 108.082077,263.973480 
	C108.082077,263.973480 108.015236,263.993866 107.974846,263.621185 
	C106.927086,261.971191 106.006187,260.612854 104.897896,259.430115 
	C99.075111,253.216171 93.198151,247.053070 87.354042,240.859055 
	C84.274925,237.595627 81.224419,234.305206 78.160980,231.026962 
	C77.550163,229.728378 76.939346,228.429794 76.084030,226.482407 
	C73.321327,219.098495 70.943207,212.306854 68.253120,205.641113 
	C63.867893,194.774979 61.004566,183.618607 60.999367,171.830902 
	C60.996655,165.684219 61.085567,159.535614 60.943653,153.392258 
	C60.909100,151.896362 60.127983,150.417740 59.690136,148.931168 
	C59.690136,148.931168 59.307999,148.812317 59.148842,148.296768 
	C55.917755,146.413086 52.845825,145.044968 48.987320,143.326523 
	C57.666351,138.842987 65.966423,134.555237 74.046432,130.381165 
	C76.064499,132.323059 77.977364,134.163712 79.890221,136.004379 
	C80.296448,136.684906 80.702682,137.365448 81.088036,138.751740 
	C83.603333,143.517593 82.712021,149.501816 88.089638,151.966766 
	C88.089638,151.966766 88.320297,152.180237 88.128326,152.697083 
	C86.145653,153.496902 84.343063,153.722168 82.569260,154.087296 
	C81.684975,154.269333 80.853401,154.707397 79.997986,155.029663 
	C79.373413,155.029709 78.748848,155.029755 77.667358,155.125641 
	C77.210449,155.221481 77.127563,155.259506 77.127563,155.259506 
	C77.037720,160.930756 76.947884,166.602005 76.549194,173.010712 
	C74.778976,187.308578 80.930061,199.114105 85.049683,211.367111 
	C85.411453,212.443130 87.175529,213.047668 88.288269,213.871201 
	C88.568184,214.285187 88.848099,214.699173 89.096588,215.772141 
	C90.231720,218.292999 91.398285,220.154877 92.564850,222.016754 
	C92.564850,222.016754 92.936577,222.337112 92.989044,222.964798 
	C93.242348,224.713531 93.065178,226.157623 93.703636,226.904663 
	C98.972878,233.070053 104.128632,239.373520 109.880066,245.068283 
	C112.737328,247.897400 116.772194,249.537216 120.274307,251.715073 
	C120.274307,251.715073 120.202324,251.847244 120.251442,252.127640 
	C123.444946,257.023743 128.188309,258.821899 133.379715,259.830536 
	C133.379715,259.830536 133.730423,259.839478 133.908051,260.303101 
	C137.261246,262.084747 140.436813,263.402832 143.612396,264.720886 
	C145.176193,265.152344 146.740005,265.583832 148.655518,266.539429 
	C153.669952,268.098663 158.332687,269.133728 162.995407,270.168762 
	C163.433167,270.202606 163.870926,270.236450 164.727295,270.674042 
	C166.414185,271.108978 167.682465,271.140198 168.950760,271.171417 
z"/>
<path fill="#4F87B4" opacity="1.000000" stroke="none" 
	d="
M304.372620,134.936951 
	C304.372620,134.936951 304.633881,135.321030 304.273987,135.731918 
	C304.271973,139.193710 302.189728,142.873398 306.273865,145.231552 
	C306.312744,145.816971 306.270447,146.155853 306.158508,146.866272 
	C306.060577,147.488266 306.032318,147.738693 306.001343,148.458466 
	C306.158264,160.196014 306.317932,171.464203 306.461304,183.054108 
	C306.292847,184.250092 306.140717,185.124405 305.724731,186.213501 
	C305.206787,188.646942 304.952637,190.865601 304.857849,193.064850 
	C305.017151,193.045425 305.319122,192.936493 305.319092,192.936493 
	C305.114105,193.908615 304.909088,194.880737 304.467041,196.469421 
	C304.118073,197.721237 304.006195,198.356506 303.894318,198.991791 
	C303.492096,200.260254 303.089874,201.528732 302.434692,203.395752 
	C300.105896,209.327057 298.029999,214.659805 295.954132,219.992569 
	C295.954132,219.992569 295.763580,220.225571 295.526367,220.553848 
	C295.160828,221.254929 295.032562,221.627731 294.904297,222.000534 
	C294.904297,222.000534 294.720825,222.203262 294.397095,222.475861 
	C293.378479,222.840439 292.683563,222.932419 291.988678,223.024384 
	C291.797119,222.754807 291.605591,222.485229 291.070282,221.807373 
	C288.182739,219.206039 285.639008,217.013000 283.095276,214.819962 
	C282.599701,214.268951 282.104126,213.717957 281.279358,212.656250 
	C281.710266,209.102676 282.470398,206.059814 283.230499,203.016937 
	C283.230499,203.016937 283.388367,202.803558 283.642273,202.462738 
	C285.016327,199.078430 286.136536,196.034958 287.600098,192.908417 
	C288.647125,191.412109 289.706512,190.066360 289.989807,188.573364 
	C290.965515,183.431854 291.758301,178.250793 292.458588,173.062912 
	C293.744629,163.536026 293.142365,154.149429 290.005188,144.582184 
	C289.273712,142.450897 288.547028,140.733444 287.651550,138.755371 
	C287.305908,137.696991 287.129089,136.899246 286.975098,135.664963 
	C286.514587,131.155960 287.691315,126.467926 282.776825,123.892479 
	C282.713745,123.769753 282.804138,123.508987 282.842590,123.141678 
	C282.507507,122.221443 282.133942,121.668510 281.808258,121.098282 
	C281.856110,121.080994 281.843506,121.181976 281.805481,120.927734 
	C281.519684,120.448997 281.271881,120.224510 280.942566,119.841248 
	C280.861023,119.682472 280.859833,119.325516 280.902466,118.940582 
	C280.486359,117.792175 280.027618,117.028702 279.568909,116.265221 
	C279.568909,116.265221 279.695618,116.336990 279.765839,115.944733 
	C280.911285,112.721970 281.986511,109.891464 283.423767,107.037048 
	C284.410370,106.864204 285.240692,106.920937 285.627350,106.534149 
	C289.024078,103.136246 291.001526,104.006897 292.384125,108.378685 
	C292.688660,109.341698 294.364044,109.871162 295.408173,110.600273 
	C295.408173,110.600273 295.198578,110.600189 295.172577,111.052673 
	C295.045776,115.849709 296.141998,119.619957 300.217590,122.123283 
	C300.261963,122.264549 300.184723,122.550964 300.148102,122.907928 
	C300.457581,123.823967 300.803711,124.383057 301.138245,124.913925 
	C301.126678,124.885704 301.186859,124.870346 301.129028,125.303543 
	C301.265350,129.128708 300.246063,132.956100 304.372620,134.936951 
z"/>
<path fill="#5389B2" opacity="1.000000" stroke="none" 
	d="
M207.028076,275.942108 
	C206.336990,274.855133 205.645920,273.768158 205.260849,272.169373 
	C211.234024,262.897888 216.901199,254.138245 223.255341,244.316742 
	C224.825485,250.826614 226.152649,256.329071 227.801605,263.165710 
	C234.066879,259.113342 239.549759,255.567047 245.032639,252.020752 
	C245.771851,252.002701 246.511047,251.984665 247.746796,252.303467 
	C251.885986,256.330719 255.528641,260.021118 259.847076,264.396149 
	C252.568588,268.660126 245.860138,272.844757 238.914413,276.589233 
	C231.636185,280.512909 231.551956,280.325409 233.050705,288.357452 
	C233.271194,289.539124 233.267059,290.762695 233.409622,292.482727 
	C231.209457,291.451599 229.614105,290.703949 228.018768,289.956299 
	C227.640060,289.616913 227.261353,289.277527 226.459717,288.665833 
	C225.694458,288.253174 225.352142,288.112885 225.009811,287.972595 
	C224.319458,287.479370 223.629105,286.986115 222.511353,286.113739 
	C220.071106,284.470764 218.058273,283.206970 216.045425,281.943176 
	C216.045425,281.943176 215.996460,281.990021 215.869476,281.670593 
	C213.597031,280.127594 211.451553,278.904053 209.306076,277.680511 
	C209.306076,277.680511 209.309616,277.740051 209.199280,277.434174 
	C208.401993,276.732910 207.715042,276.337494 207.028076,275.942108 
z"/>
<path fill="#27353A" opacity="1.000000" stroke="none" 
	d="
M247.109131,116.508728 
	C245.446625,117.169029 243.681412,117.500534 241.916214,117.832039 
	C242.206650,117.455528 242.497086,117.079018 242.787521,116.702507 
	C238.236618,112.330208 233.711639,107.930443 229.124313,103.596695 
	C226.674500,101.282310 224.448013,98.397186 221.531982,96.987701 
	C216.960587,94.778069 211.892197,93.428505 206.627182,97.425262 
	C206.546417,95.857277 206.246948,94.902580 206.501633,94.130737 
	C207.504211,91.092354 205.872391,89.818871 203.352768,89.058945 
	C202.720993,88.868401 202.054703,88.707397 201.400116,88.690094 
	C191.375900,88.425133 181.311447,87.584702 171.345840,88.239624 
	C167.401199,88.498863 163.884125,92.777534 159.805023,94.023521 
	C152.548203,96.240166 146.028336,99.478180 139.813812,103.807899 
	C137.778091,105.226212 134.317841,104.599876 131.128479,104.849045 
	C140.743851,94.684334 153.220795,89.012291 166.778122,86.120850 
	C178.921555,83.530968 191.370300,83.374252 203.496048,86.823006 
	C213.401505,89.640274 222.950302,93.276619 230.534317,100.788979 
	C235.870773,106.075027 241.505112,111.060333 247.109131,116.508728 
z"/>
<path fill="#F0F5F6" opacity="1.000000" stroke="none" 
	d="
M228.015869,290.355652 
	C229.614105,290.703949 231.209457,291.451599 233.409622,292.482727 
	C233.267059,290.762695 233.271194,289.539124 233.050705,288.357452 
	C231.551956,280.325409 231.636185,280.512909 238.914413,276.589233 
	C245.860138,272.844757 252.568588,268.660126 259.847076,264.396149 
	C255.528641,260.021118 251.885986,256.330719 248.117065,252.332062 
	C250.122482,251.766434 252.254135,251.509003 254.721939,251.115295 
	C255.706970,251.448593 256.355835,251.918182 256.759644,252.734467 
	C256.212708,253.498184 255.910843,253.915192 255.608978,254.332184 
	C256.566101,254.302628 257.523224,254.273087 258.480347,254.243530 
	C258.480347,254.243546 258.594635,254.357925 258.473419,254.728119 
	C258.352203,255.908218 258.352203,256.718109 258.352203,257.527985 
	C258.631439,257.572357 258.910706,257.616760 259.189941,257.661133 
	C259.452942,256.931061 259.715912,256.200989 259.978882,255.470917 
	C261.070160,256.349609 262.161438,257.228302 263.674438,258.516632 
	C265.379913,260.289307 266.663666,261.652344 267.947449,263.015381 
	C263.004547,263.010986 259.652893,265.417877 257.117340,269.579193 
	C256.388763,270.774902 254.143784,270.946472 253.072784,272.051605 
	C249.099945,276.150848 244.169907,277.804413 238.779373,279.333740 
	C233.316849,280.883453 233.043274,283.818146 237.296692,289.500732 
	C235.598007,290.945801 233.986908,292.889099 231.922668,293.767609 
	C231.181122,294.083221 229.347931,291.833801 228.015869,290.355652 
z"/>
<path fill="#5C87A3" opacity="1.000000" stroke="none" 
	d="
M59.625587,149.386078 
	C60.127983,150.417740 60.909100,151.896362 60.943653,153.392258 
	C61.085567,159.535614 60.996655,165.684219 60.999367,171.830902 
	C61.004566,183.618607 63.867893,194.774979 68.253120,205.641113 
	C70.943207,212.306854 73.321327,219.098495 75.899246,226.170593 
	C74.274658,223.946396 72.232750,221.550217 70.962646,218.797867 
	C60.846329,196.875488 56.623215,173.940399 59.625587,149.386078 
z"/>
<path fill="#F0F5F6" opacity="1.000000" stroke="none" 
	d="
M244.711853,251.875214 
	C239.549759,255.567047 234.066879,259.113342 227.801605,263.165710 
	C226.152649,256.329071 224.825485,250.826614 223.255341,244.316742 
	C216.901199,254.138245 211.234024,262.897888 205.274872,271.825653 
	C202.477264,266.756622 208.032623,264.787445 209.613907,261.265900 
	C211.998581,255.955139 215.600189,251.162048 218.947235,246.330948 
	C219.871445,244.996948 221.727585,244.308594 223.156128,243.324005 
	C224.089752,244.783264 225.123932,246.190933 225.911301,247.725250 
	C226.263809,248.412170 226.005936,249.384567 226.221405,250.173798 
	C228.560776,258.742584 232.203217,259.640137 238.994049,253.662582 
	C240.327209,252.489075 242.568573,252.347305 244.711853,251.875214 
z"/>
<path fill="#5C87A3" opacity="1.000000" stroke="none" 
	d="
M79.868225,135.639099 
	C77.977364,134.163712 76.064499,132.323059 74.046432,130.381165 
	C65.966423,134.555237 57.666351,138.842987 48.987320,143.326523 
	C52.845825,145.044968 55.917755,146.413086 59.049156,148.123260 
	C54.409760,147.075317 49.710892,145.685318 45.012024,144.295319 
	C44.943073,143.836929 44.874119,143.378540 44.805168,142.920151 
	C54.990665,137.806015 65.176163,132.691895 75.934708,127.290047 
	C77.420151,130.321991 78.633194,132.797913 79.868225,135.639099 
z"/>
<path fill="#5C87A3" opacity="1.000000" stroke="none" 
	d="
M78.195541,231.366577 
	C81.224419,234.305206 84.274925,237.595627 87.354042,240.859055 
	C93.198151,247.053070 99.075111,253.216171 104.897896,259.430115 
	C106.006187,260.612854 106.927086,261.971191 107.977646,263.586365 
	C95.461922,255.615494 86.163956,244.291504 78.195541,231.366577 
z"/>
<path fill="#5483A3" opacity="1.000000" stroke="none" 
	d="
M290.010010,144.996002 
	C293.142365,154.149429 293.744629,163.536026 292.458588,173.062912 
	C291.758301,178.250793 290.965515,183.431854 289.989807,188.573364 
	C289.706512,190.066360 288.647125,191.412109 287.522949,192.653748 
	C287.034241,192.318451 286.966064,192.154755 286.897858,191.991058 
	C287.057617,191.378357 287.217377,190.765671 287.574829,189.582733 
	C287.866119,188.338043 287.959686,187.663589 288.053284,186.989136 
	C288.377380,185.568390 288.701447,184.147644 289.253967,182.077209 
	C289.562378,179.602325 289.642334,177.777145 289.722321,175.951950 
	C289.848175,175.224335 289.974030,174.496735 290.321350,173.072296 
	C290.062408,164.569901 289.582001,156.764313 289.101624,148.958725 
	C289.022156,148.216995 288.942719,147.475266 288.871185,146.143585 
	C288.939911,145.371292 289.000732,145.188919 289.298737,145.008392 
	C289.535889,145.010239 290.010010,144.996002 290.010010,144.996002 
z"/>
<path fill="#658EAE" opacity="1.000000" stroke="none" 
	d="
M120.160690,251.408905 
	C116.772194,249.537216 112.737328,247.897400 109.880066,245.068283 
	C104.128632,239.373520 98.972878,233.070053 93.703636,226.904663 
	C93.065178,226.157623 93.242348,224.713531 93.071945,223.195740 
	C98.753967,229.236053 104.280083,235.789703 110.108650,242.062286 
	C113.146362,245.331406 116.717094,248.105209 120.160690,251.408905 
z"/>
<path fill="#658EAE" opacity="1.000000" stroke="none" 
	d="
M88.236885,213.501007 
	C87.175529,213.047668 85.411453,212.443130 85.049683,211.367111 
	C80.930061,199.114105 74.778976,187.308578 76.480545,173.434052 
	C78.584595,181.508957 80.162941,189.975677 82.417580,198.258301 
	C83.806618,203.361053 86.227753,208.182861 88.236885,213.501007 
z"/>
<path fill="#21272C" opacity="1.000000" stroke="none" 
	d="
M104.820099,154.367386 
	C105.234840,159.687698 109.204399,164.806870 106.701920,171.154892 
	C105.692421,173.715683 107.857529,177.457733 108.321999,180.698853 
	C108.561440,182.369736 108.239937,184.121033 107.818672,186.071564 
	C107.052887,185.064972 106.640335,183.822830 106.108208,182.020142 
	C105.839493,180.925171 105.690353,180.390747 105.541214,179.856323 
	C105.257019,171.488861 104.972824,163.121384 104.820099,154.367386 
z"/>
<path fill="#F0F5F6" opacity="1.000000" stroke="none" 
	d="
M225.161972,232.973175 
	C226.684021,231.434219 228.593643,229.962753 230.801712,228.261307 
	C233.918991,231.133179 236.787842,233.776169 239.763336,236.733032 
	C235.096512,235.711487 230.323029,234.376083 225.161972,232.973175 
z"/>
<path fill="#5988A6" opacity="1.000000" stroke="none" 
	d="
M306.477600,182.732407 
	C306.317932,171.464203 306.158264,160.196014 306.219482,148.464142 
	C306.440369,148.000473 306.876770,148.012100 306.962341,148.360260 
	C307.354980,149.811478 307.662079,150.914551 307.969177,152.017609 
	C308.069672,154.360275 308.170197,156.702957 308.233490,159.911377 
	C308.316772,163.220673 308.437256,165.664185 308.557739,168.107712 
	C308.363434,170.768890 308.169098,173.430069 307.743896,176.800690 
	C307.167877,179.250900 306.822723,180.991653 306.477600,182.732407 
z"/>
<path fill="#739BB6" opacity="1.000000" stroke="none" 
	d="
M185.020126,288.999573 
	C185.012192,287.336395 185.164276,285.654266 184.969574,284.013245 
	C183.941696,275.349579 183.800125,275.289398 174.977951,273.908508 
	C173.971954,273.751068 173.087952,272.814301 172.035248,271.904480 
	C184.020432,270.407104 184.592468,270.852325 186.098694,282.631012 
	C186.223572,283.607544 186.319122,284.587799 186.283813,286.348083 
	C185.766235,287.753052 185.393188,288.376312 185.020126,288.999573 
z"/>
<path fill="#101A1F" opacity="1.000000" stroke="none" 
	d="
M262.201569,176.725006 
	C261.710724,175.209137 261.019989,173.376648 261.022644,171.545197 
	C261.032440,164.859879 261.273560,158.174881 261.758423,151.219574 
	C262.166199,159.435867 262.243042,167.922363 262.201569,176.725006 
z"/>
<path fill="#DFEFF7" opacity="1.000000" stroke="none" 
	d="
M288.798828,149.206421 
	C289.582001,156.764313 290.062408,164.569901 290.291199,172.702789 
	C289.693359,170.845779 289.149353,168.671387 289.039520,166.475296 
	C288.755981,160.806686 288.664307,155.128494 288.798828,149.206421 
z"/>
<path fill="#F0F5F6" opacity="1.000000" stroke="none" 
	d="
M129.925644,223.661499 
	C134.144531,226.360367 138.380707,229.423065 142.801010,232.765259 
	C137.767166,234.152863 131.235550,229.635880 129.925644,223.661499 
z"/>
<path fill="#628EAC" opacity="1.000000" stroke="none" 
	d="
M295.400024,110.256615 
	C294.364044,109.871162 292.688660,109.341698 292.384125,108.378685 
	C291.001526,104.006897 289.024078,103.136246 285.627350,106.534149 
	C285.240692,106.920937 284.410370,106.864204 283.355896,106.959106 
	C282.926025,106.905067 282.792694,106.747078 282.956757,106.474396 
	C284.394623,104.790794 285.668457,103.379875 286.942291,101.968964 
	C288.071136,101.568344 289.200012,101.167717 290.733948,101.141251 
	C291.383209,101.768921 291.627350,102.022446 291.871490,102.275970 
	C292.143066,102.703758 292.414673,103.131554 292.751404,104.086685 
	C293.099884,105.107674 293.383240,105.601326 293.666595,106.094971 
	C294.241699,107.367630 294.816772,108.640289 295.400024,110.256615 
z"/>
<path fill="#658EAE" opacity="1.000000" stroke="none" 
	d="
M80.270844,155.247040 
	C80.853401,154.707397 81.684975,154.269333 82.569260,154.087296 
	C84.343063,153.722168 86.145653,153.496902 88.126968,152.854218 
	C89.446442,154.334793 90.575302,156.175095 91.704163,158.015381 
	C91.442390,158.335541 91.180611,158.655685 90.918831,158.975845 
	C87.460457,157.805359 84.002075,156.634888 80.270844,155.247040 
z"/>
<path fill="#F0F5F6" opacity="1.000000" stroke="none" 
	d="
M205.406036,240.107330 
	C205.406036,240.107315 205.716827,240.275589 206.235535,240.237228 
	C210.427689,238.568893 214.101135,236.938919 217.774597,235.308929 
	C219.265686,234.841827 220.756775,234.374741 222.594757,233.879181 
	C221.359985,235.034378 219.943863,236.697906 218.165497,237.311386 
	C212.899765,239.127960 207.491089,240.530136 202.441269,241.758759 
	C203.631485,240.984528 204.518768,240.545929 205.406036,240.107330 
z"/>
<path fill="#92B3C9" opacity="1.000000" stroke="none" 
	d="
M235.678619,83.080948 
	C235.734665,84.102798 235.454376,85.173431 235.078781,86.608101 
	C238.800430,86.999512 242.275696,87.365013 245.970856,88.014099 
	C241.337173,88.297676 236.483597,88.297676 231.630005,88.297676 
	C231.469849,87.798225 231.309677,87.298782 231.149506,86.799332 
	C232.547089,85.576126 233.944672,84.352928 235.678619,83.080948 
z"/>
<path fill="#F0F5F6" opacity="1.000000" stroke="none" 
	d="
M115.828903,121.099640 
	C113.449135,127.153770 110.704147,133.228531 107.690247,139.549637 
	C107.725258,132.547195 111.790001,126.917938 115.828903,121.099640 
z"/>
<path fill="#92B3C9" opacity="1.000000" stroke="none" 
	d="
M259.317627,89.111183 
	C261.079681,88.454643 263.136292,88.049973 265.580048,87.569130 
	C265.868500,85.050285 266.181549,82.316887 266.772888,79.289337 
	C267.228577,81.561028 267.916504,84.218185 267.477234,86.673714 
	C266.563538,91.781448 262.582855,89.409050 259.317627,89.111183 
z"/>
<path fill="#DFEFF7" opacity="1.000000" stroke="none" 
	d="
M296.326569,219.955597 
	C298.029999,214.659805 300.105896,209.327057 302.439270,203.730591 
	C302.854828,209.737289 300.006165,214.911545 296.326569,219.955597 
z"/>
<path fill="#CEE6F2" opacity="1.000000" stroke="none" 
	d="
M306.461304,183.054108 
	C306.822723,180.991653 307.167877,179.250900 307.766418,177.248627 
	C310.374237,182.642654 307.886292,187.680786 305.661652,192.866333 
	C305.319122,192.936493 305.017151,193.045425 305.013428,192.692230 
	C305.335968,190.225571 305.662262,188.112137 305.988586,185.998703 
	C306.140717,185.124405 306.292847,184.250092 306.461304,183.054108 
z"/>
<path fill="#F0F5F6" opacity="1.000000" stroke="none" 
	d="
M301.698669,257.925659 
	C301.291290,252.615158 301.235992,247.211639 301.144165,241.386459 
	C304.840393,244.436218 305.311035,252.853531 301.698669,257.925659 
z"/>
<path fill="#CEE6F2" opacity="1.000000" stroke="none" 
	d="
M308.262787,151.762955 
	C307.662079,150.914551 307.354980,149.811478 306.951843,148.072540 
	C306.646606,147.122696 306.437408,146.808716 306.228180,146.494720 
	C306.270447,146.155853 306.312744,145.816971 306.276733,144.815140 
	C305.883392,141.742935 305.568390,139.333710 305.253387,136.924469 
	C309.467529,141.080658 307.937195,146.537903 308.262787,151.762955 
z"/>
<path fill="#739BB6" opacity="1.000000" stroke="none" 
	d="
M162.662659,269.988281 
	C158.332687,269.133728 153.669952,268.098663 148.970062,266.697479 
	C153.398575,267.490143 157.864243,268.648956 162.662659,269.988281 
z"/>
<path fill="#628EAC" opacity="1.000000" stroke="none" 
	d="
M300.173248,121.982018 
	C296.141998,119.619957 295.045776,115.849709 295.274170,111.078384 
	C295.700043,110.829956 295.998322,111.008286 296.509216,111.569901 
	C296.950623,112.350616 297.179443,112.748055 297.408234,113.145493 
	C297.716309,113.960510 298.024384,114.775528 298.608917,116.139587 
	C299.160858,116.977013 299.436340,117.265404 299.711823,117.553787 
	C299.711243,117.884735 299.710663,118.215675 299.810699,119.151398 
	C299.998627,120.498131 300.085938,121.240074 300.173248,121.982018 
z"/>
<path fill="#658EAE" opacity="1.000000" stroke="none" 
	d="
M133.163849,259.555756 
	C128.188309,258.821899 123.444946,257.023743 120.248016,252.052460 
	C124.446312,254.224930 128.697144,256.752960 133.163849,259.555756 
z"/>
<path fill="#658EAE" opacity="1.000000" stroke="none" 
	d="
M88.062149,151.601242 
	C82.712021,149.501816 83.603333,143.517593 81.113083,139.055969 
	C83.450890,142.848206 85.742767,147.041962 88.062149,151.601242 
z"/>
<path fill="#262F35" opacity="1.000000" stroke="none" 
	d="
M276.873505,267.299255 
	C277.401459,266.603790 278.078064,265.238647 278.434174,265.317688 
	C281.596313,266.019440 284.701721,266.976837 288.039246,268.353821 
	C288.254669,268.848877 288.272491,269.123169 288.272491,269.123169 
	C288.056274,269.102570 287.840088,269.082001 286.879333,269.110779 
	C283.751648,269.192322 281.368469,269.224548 278.985291,269.256775 
	C278.985291,269.256744 278.539520,269.080017 278.237244,268.764160 
	C277.581177,268.065277 277.227325,267.682281 276.873505,267.299255 
z"/>
<path fill="#5C87A3" opacity="1.000000" stroke="none" 
	d="
M120.600967,272.488586 
	C124.834656,274.321686 129.263412,276.455170 133.873489,278.894836 
	C129.635208,277.063660 125.215614,274.926300 120.600967,272.488586 
z"/>
<path fill="#628EAC" opacity="1.000000" stroke="none" 
	d="
M282.993896,106.983017 
	C281.986511,109.891464 280.911285,112.721970 279.699615,115.975006 
	C279.230438,116.396187 278.931335,116.295166 278.385071,115.741837 
	C277.840088,115.173759 277.575897,114.958321 277.311707,114.742874 
	C277.311707,114.742874 277.359619,114.680481 277.341980,114.307442 
	C277.146118,113.275864 276.967926,112.617325 276.789734,111.958786 
	C277.774445,110.872711 278.759155,109.786636 280.163635,108.337227 
	C280.790833,107.677742 280.998291,107.381592 281.205750,107.085434 
	C281.205750,107.085434 281.607971,106.936989 281.979401,106.844772 
	C282.350830,106.752556 282.792694,106.747078 282.792694,106.747078 
	C282.792694,106.747078 282.926025,106.905067 282.993896,106.983017 
z"/>
<path fill="#27353A" opacity="1.000000" stroke="none" 
	d="
M130.475769,104.861816 
	C128.131042,107.823547 125.467896,110.905617 122.446594,114.005905 
	C124.778084,111.010124 127.467720,107.996140 130.475769,104.861816 
z"/>
<path fill="#DFEFF7" opacity="1.000000" stroke="none" 
	d="
M289.061584,145.006546 
	C289.000732,145.188919 288.939911,145.371292 288.725433,145.798065 
	C287.158295,141.394821 285.744843,136.747177 284.713440,131.942383 
	C285.714447,133.223999 286.333374,134.662750 286.952271,136.101501 
	C287.129089,136.899246 287.305908,137.696991 287.640015,139.145996 
	C288.218719,141.533691 288.640137,143.270126 289.061584,145.006546 
z"/>
<path fill="#628EAC" opacity="1.000000" stroke="none" 
	d="
M286.975098,135.664963 
	C286.333374,134.662750 285.714447,133.223999 284.867371,131.531647 
	C284.308685,129.997910 283.978119,128.717743 283.407227,126.815254 
	C283.057861,125.467018 282.948883,124.741112 282.839905,124.015205 
	C287.691315,126.467926 286.514587,131.155960 286.975098,135.664963 
z"/>
<path fill="#658EAE" opacity="1.000000" stroke="none" 
	d="
M143.405930,264.430786 
	C140.436813,263.402832 137.261246,262.084747 134.045746,260.411743 
	C137.070374,261.418091 140.134918,262.779388 143.405930,264.430786 
z"/>
<path fill="#DFEFF7" opacity="1.000000" stroke="none" 
	d="
M283.068542,215.198776 
	C285.639008,217.013000 288.182739,219.206039 290.835876,221.713287 
	C286.548798,222.036621 284.775116,218.831802 283.068542,215.198776 
z"/>
<path fill="#262F35" opacity="1.000000" stroke="none" 
	d="
M268.257172,263.145630 
	C266.663666,261.652344 265.379913,260.289307 263.957977,258.644348 
	C264.837341,258.369720 266.292999,257.948364 266.794312,258.460754 
	C268.665955,260.373718 270.224854,262.592712 271.881592,265.070618 
	C270.763702,264.721497 269.665283,263.998688 268.257172,263.145630 
z"/>
<path fill="#628EAC" opacity="1.000000" stroke="none" 
	d="
M304.380493,134.571136 
	C300.246063,132.956100 301.265350,129.128708 301.343811,125.463348 
	C301.948608,125.608421 302.280701,126.026894 302.612793,126.445374 
	C302.907959,127.457458 303.203156,128.469543 303.623535,130.108902 
	C303.896759,131.165161 304.044769,131.594147 304.192780,132.023117 
	C304.257965,132.750519 304.323151,133.477905 304.380493,134.571136 
z"/>
<path fill="#21272C" opacity="1.000000" stroke="none" 
	d="
M109.875275,193.359039 
	C114.010300,194.303406 114.115936,197.782455 113.949448,201.460373 
	C113.590363,201.706024 113.134247,201.649277 113.134247,201.649277 
	C112.045670,199.009201 110.957085,196.369141 109.875275,193.359039 
z"/>
<path fill="#F0F5F6" opacity="1.000000" stroke="none" 
	d="
M288.593018,269.282257 
	C288.272491,269.123169 288.254669,268.848877 288.284668,268.714752 
	C290.670929,267.501526 293.027191,266.422394 295.718567,265.250671 
	C295.607361,269.809265 292.940765,270.759399 288.593018,269.282257 
z"/>
<path fill="#F0F5F6" opacity="1.000000" stroke="none" 
	d="
M113.085190,202.052017 
	C113.134247,201.649277 113.590363,201.706024 113.813080,201.762589 
	C115.218185,203.991425 116.400581,206.163681 117.585197,208.684616 
	C113.109482,208.888870 113.834167,205.145081 113.085190,202.052017 
z"/>
<path fill="#DFEFF7" opacity="1.000000" stroke="none" 
	d="
M282.882874,203.145264 
	C282.470398,206.059814 281.710266,209.102676 281.021881,212.542908 
	C280.456451,211.610947 279.055603,210.076080 279.346191,208.996445 
	C279.896759,206.950897 281.417511,205.166473 282.882874,203.145264 
z"/>
<path fill="#5C87A3" opacity="1.000000" stroke="none" 
	d="
M142.614136,282.489990 
	C146.106125,282.945496 149.820938,283.702698 153.354492,284.759369 
	C152.622940,285.159546 152.072647,285.260254 151.522354,285.360931 
	C148.627213,284.504517 145.732086,283.648071 142.614136,282.489990 
z"/>
<path fill="#F0F5F6" opacity="1.000000" stroke="none" 
	d="
M216.056625,282.295258 
	C218.058273,283.206970 220.071106,284.470764 222.201752,286.014099 
	C219.641266,287.739441 219.139114,287.446564 216.056625,282.295258 
z"/>
<path fill="#DFEFF7" opacity="1.000000" stroke="none" 
	d="
M286.590759,192.166870 
	C286.966064,192.154755 287.034241,192.318451 287.179565,192.736816 
	C286.136536,196.034958 285.016327,199.078430 283.603210,202.335907 
	C284.301392,199.147507 285.292511,195.745102 286.590759,192.166870 
z"/>
<path fill="#92B3C9" opacity="1.000000" stroke="none" 
	d="
M267.744263,69.155952 
	C267.494324,66.434631 267.529541,63.478046 267.884460,60.253242 
	C268.145905,62.963577 268.087646,65.942139 267.744263,69.155952 
z"/>
<path fill="#DFEFF7" opacity="1.000000" stroke="none" 
	d="
M282.776825,123.892479 
	C282.948883,124.741112 283.057861,125.467018 283.184021,126.559967 
	C281.926178,124.442421 280.651154,121.957832 279.873596,119.302498 
	C280.533936,119.196335 280.696869,119.260925 280.859833,119.325516 
	C280.859833,119.325516 280.861023,119.682472 280.968750,120.104378 
	C281.332153,120.744850 281.587830,120.963417 281.843506,121.181976 
	C281.843506,121.181976 281.856110,121.080994 281.812927,121.438080 
	C282.114532,122.366440 282.459320,122.937714 282.804138,123.508987 
	C282.804138,123.508987 282.713745,123.769753 282.776825,123.892479 
z"/>
<path fill="#628EAC" opacity="1.000000" stroke="none" 
	d="
M305.153198,136.730148 
	C305.568390,139.333710 305.883392,141.742935 306.195526,144.568588 
	C302.189728,142.873398 304.271973,139.193710 304.270172,135.964142 
	C304.843201,135.993103 304.985474,136.243225 305.153198,136.730148 
z"/>
<path fill="#19242D" opacity="1.000000" stroke="none" 
	d="
M188.978348,243.179260 
	C190.890427,239.054199 193.973984,241.217560 196.993805,242.086731 
	C195.730362,242.712967 194.223343,242.983902 192.005829,243.303833 
	C190.523010,243.294983 189.750671,243.237122 188.978348,243.179260 
z"/>
<path fill="#CEE6F2" opacity="1.000000" stroke="none" 
	d="
M308.866943,167.941010 
	C308.437256,165.664185 308.316772,163.220673 308.336304,160.336517 
	C308.709595,162.522034 308.942841,165.148178 308.866943,167.941010 
z"/>
<path fill="#F0F5F6" opacity="1.000000" stroke="none" 
	d="
M209.234573,278.064270 
	C211.451553,278.904053 213.597031,280.127594 215.895721,281.651794 
	C213.753632,280.784332 211.458359,279.616211 209.234573,278.064270 
z"/>
<path fill="#F0F5F6" opacity="1.000000" stroke="none" 
	d="
M279.087677,269.615021 
	C281.368469,269.224548 283.751648,269.192322 286.576782,269.231506 
	C284.409149,269.526367 281.799622,269.749817 279.087677,269.615021 
z"/>
<path fill="#5C87A3" opacity="1.000000" stroke="none" 
	d="
M113.868721,268.419556 
	C115.771820,269.195923 117.845207,270.264832 119.948860,271.700531 
	C117.999092,270.948944 116.019051,269.830536 113.868721,268.419556 
z"/>
<path fill="#F0F5F6" opacity="1.000000" stroke="none" 
	d="
M106.366974,143.067749 
	C106.244186,145.448654 105.784615,147.914612 105.093552,150.669205 
	C105.251434,148.356171 105.640823,145.754486 106.366974,143.067749 
z"/>
<path fill="#F0F5F6" opacity="1.000000" stroke="none" 
	d="
M118.042854,210.221283 
	C119.613487,211.693298 121.159508,213.550278 122.788757,215.726288 
	C119.148926,216.110901 118.405540,213.517471 118.042854,210.221283 
z"/>
<path fill="#658EAE" opacity="1.000000" stroke="none" 
	d="
M92.550362,221.684753 
	C91.398285,220.154877 90.231720,218.292999 89.115295,216.028076 
	C90.288918,217.534271 91.412399,219.443527 92.550362,221.684753 
z"/>
<path fill="#F0F5F6" opacity="1.000000" stroke="none" 
	d="
M232.039551,239.167480 
	C232.851776,239.764084 233.337784,240.427979 233.823792,241.091858 
	C232.899124,241.495773 231.974472,241.899673 231.049835,242.303589 
	C231.270996,241.280655 231.492172,240.257721 232.039551,239.167480 
z"/>
<path fill="#DFEFF7" opacity="1.000000" stroke="none" 
	d="
M282.956757,106.474396 
	C282.792694,106.747078 282.350830,106.752556 282.136169,106.698517 
	C283.353302,105.089485 284.785126,103.534492 286.579651,101.974228 
	C285.668457,103.379875 284.394623,104.790794 282.956757,106.474396 
z"/>
<path fill="#DFEFF7" opacity="1.000000" stroke="none" 
	d="
M289.384583,176.054047 
	C289.642334,177.777145 289.562378,179.602325 289.225769,181.711823 
	C288.995056,180.049454 289.020966,178.102798 289.384583,176.054047 
z"/>
<path fill="#F0F5F6" opacity="1.000000" stroke="none" 
	d="
M276.499054,267.295471 
	C277.227325,267.682281 277.581177,268.065277 278.003815,268.709473 
	C276.082336,268.291321 274.092041,267.612000 272.014038,266.589783 
	C273.325775,266.595184 274.725189,266.943451 276.499054,267.295471 
z"/>
<path fill="#CEE6F2" opacity="1.000000" stroke="none" 
	d="
M302.723572,126.046646 
	C302.280701,126.026894 301.948608,125.608421 301.401672,125.030151 
	C301.186859,124.870346 301.126678,124.885704 301.127869,124.580643 
	C300.814270,123.700699 300.499481,123.125832 300.184723,122.550964 
	C300.184723,122.550964 300.261963,122.264549 300.217590,122.123283 
	C300.085938,121.240074 299.998627,120.498131 299.912842,119.381943 
	C300.887726,121.221115 301.861053,123.434525 302.723572,126.046646 
z"/>
<path fill="#F0F5F6" opacity="1.000000" stroke="none" 
	d="
M164.073380,241.852844 
	C165.789810,241.904709 167.609589,242.263062 169.710175,242.825439 
	C168.052902,242.739426 166.114807,242.449387 164.073380,241.852844 
z"/>
<path fill="#5C87A3" opacity="1.000000" stroke="none" 
	d="
M108.212959,264.265747 
	C109.685944,265.002014 111.289810,266.030518 112.939064,267.386414 
	C111.437584,266.661896 109.890717,265.609955 108.212959,264.265747 
z"/>
<path fill="#F0F5F6" opacity="1.000000" stroke="none" 
	d="
M146.998444,235.518661 
	C148.253555,235.723892 149.562088,236.273163 151.076080,237.041321 
	C148.676102,240.412811 148.162994,237.232773 146.998444,235.518661 
z"/>
<path fill="#F0F5F6" opacity="1.000000" stroke="none" 
	d="
M157.033997,239.727356 
	C158.478775,239.820084 159.983597,240.238953 161.723969,240.894592 
	C160.337708,240.772064 158.715881,240.412796 157.033997,239.727356 
z"/>
<path fill="#5C87A3" opacity="1.000000" stroke="none" 
	d="
M134.593719,279.480988 
	C136.188217,279.783844 137.990082,280.376129 139.880585,281.294525 
	C138.246521,281.003906 136.523788,280.387146 134.593719,279.480988 
z"/>
<path fill="#21272C" opacity="1.000000" stroke="none" 
	d="
M107.804932,187.295837 
	C108.610008,188.568420 109.404274,190.203568 109.911377,192.015839 
	C109.014183,190.681458 108.404152,189.169937 107.804932,187.295837 
z"/>
<path fill="#27353A" opacity="1.000000" stroke="none" 
	d="
M250.024414,120.665298 
	C249.024551,119.846573 248.050827,118.694389 247.123474,117.164642 
	C248.130096,117.968674 249.090332,119.150261 250.024414,120.665298 
z"/>
<path fill="#F0F5F6" opacity="1.000000" stroke="none" 
	d="
M247.968704,244.809814 
	C249.193710,245.469574 250.427322,246.469925 251.760727,247.759003 
	C250.566116,247.081970 249.271713,246.116196 247.968704,244.809814 
z"/>
<path fill="#F0F5F6" opacity="1.000000" stroke="none" 
	d="
M242.001572,239.377472 
	C243.280869,240.118607 244.558578,241.243576 246.003067,242.648544 
	C244.779892,241.872787 243.389938,240.817047 242.001572,239.377472 
z"/>
<path fill="#92B3C9" opacity="1.000000" stroke="none" 
	d="
M268.512939,55.785290 
	C267.835876,56.025902 267.376587,56.075596 266.572632,56.127258 
	C266.819855,55.280308 267.411713,54.431393 268.003540,53.582474 
	C268.245911,54.253109 268.488312,54.923744 268.512939,55.785290 
z"/>
<path fill="#27353A" opacity="1.000000" stroke="none" 
	d="
M253.995361,126.648727 
	C253.052902,125.794807 252.076294,124.600212 251.110840,123.034576 
	C252.068420,123.878372 253.014801,125.093208 253.995361,126.648727 
z"/>
<path fill="#F0F5F6" opacity="1.000000" stroke="none" 
	d="
M188.858246,243.364838 
	C189.750671,243.237122 190.523010,243.294983 191.662689,243.484436 
	C190.815079,243.911560 189.600098,244.207108 188.191315,244.249023 
	C188.185989,243.749908 188.432877,243.601578 188.858246,243.364838 
z"/>
<path fill="#7DA3BA" opacity="1.000000" stroke="none" 
	d="
M158.019318,286.017151 
	C158.654083,286.347473 159.288864,286.677795 160.012451,287.273895 
	C158.737839,287.341034 157.374390,287.142426 156.184082,286.551056 
	C156.911270,286.111267 157.465286,286.064209 158.019318,286.017151 
z"/>
<path fill="#739BB6" opacity="1.000000" stroke="none" 
	d="
M168.686218,270.936737 
	C167.682465,271.140198 166.414185,271.108978 165.035263,270.794312 
	C166.090317,270.574585 167.255981,270.638306 168.686218,270.936737 
z"/>
<path fill="#7DA3BA" opacity="1.000000" stroke="none" 
	d="
M184.978027,289.181061 
	C185.393188,288.376312 185.766235,287.753052 186.237473,286.759186 
	C187.788086,287.936859 188.791733,289.388733 185.240753,289.833984 
	C184.907394,289.734070 184.935928,289.362549 184.978027,289.181061 
z"/>
<path fill="#F0F5F6" opacity="1.000000" stroke="none" 
	d="
M297.291809,235.339935 
	C296.563080,235.153397 295.966888,234.715698 295.345367,233.858063 
	C295.472168,233.213165 295.679443,233.065903 295.941925,232.996307 
	C296.436066,233.693787 296.930237,234.391281 297.291809,235.339935 
z"/>
<path fill="#DFEFF7" opacity="1.000000" stroke="none" 
	d="
M292.040436,223.374969 
	C292.683563,222.932419 293.378479,222.840439 294.400482,222.612534 
	C294.435638,223.237122 294.143707,223.997635 293.851776,224.758163 
	C293.265259,224.413956 292.678711,224.069748 292.040436,223.374969 
z"/>
<path fill="#7DA3BA" opacity="1.000000" stroke="none" 
	d="
M169.229843,289.065186 
	C169.909988,288.769348 170.786743,288.667053 171.837311,288.812073 
	C171.149567,289.125824 170.287994,289.192291 169.229843,289.065186 
z"/>
<path fill="#7DA3BA" opacity="1.000000" stroke="none" 
	d="
M162.290100,288.062500 
	C163.002106,287.846252 163.948059,287.869781 164.996399,288.149109 
	C164.240540,288.370697 163.382309,288.336517 162.290100,288.062500 
z"/>
<path fill="#DFEFF7" opacity="1.000000" stroke="none" 
	d="
M297.746277,113.007034 
	C297.179443,112.748055 296.950623,112.350616 296.729889,111.721252 
	C297.340485,111.245392 297.943054,111.001457 298.545593,110.757515 
	C298.391815,111.461205 298.238037,112.164894 297.746277,113.007034 
z"/>
<path fill="#DFEFF7" opacity="1.000000" stroke="none" 
	d="
M276.465210,112.035347 
	C276.967926,112.617325 277.146118,113.275864 277.343170,114.268127 
	C276.676880,114.416084 275.991730,114.230316 275.306580,114.044556 
	C275.584625,113.400345 275.862671,112.756126 276.465210,112.035347 
z"/>
<path fill="#19242D" opacity="1.000000" stroke="none" 
	d="
M204.943024,240.079010 
	C204.518768,240.545929 203.631485,240.984528 202.354156,241.448898 
	C201.268631,241.629089 200.573166,241.783508 199.522827,241.891388 
	C200.938644,241.246796 202.709320,240.648758 204.943024,240.079010 
z"/>
<path fill="#DBDFE1" opacity="1.000000" stroke="none" 
	d="
M295.899963,232.691010 
	C295.679443,233.065903 295.472168,233.213165 295.215820,233.602615 
	C294.721069,233.482712 294.330536,233.198303 293.892517,232.667877 
	C294.515991,232.409805 295.186981,232.397751 295.899963,232.691010 
z"/>
<path fill="#7DA3BA" opacity="1.000000" stroke="none" 
	d="
M151.682495,285.582642 
	C152.072647,285.260254 152.622940,285.159546 153.593124,285.049286 
	C154.013016,285.039703 154.429108,285.066040 154.663193,285.370575 
	C154.883972,285.874817 154.870667,286.074524 154.857346,286.274292 
	C153.852432,286.117615 152.847534,285.960968 151.682495,285.582642 
z"/>
<path fill="#F0F5F6" opacity="1.000000" stroke="none" 
	d="
M207.060883,276.289795 
	C207.715042,276.337494 208.401993,276.732910 209.186905,277.412750 
	C208.554459,277.343964 207.824066,276.990723 207.060883,276.289795 
z"/>
<path fill="#F0F5F6" opacity="1.000000" stroke="none" 
	d="
M105.244217,179.962799 
	C105.690353,180.390747 105.839493,180.925171 105.928352,181.734192 
	C105.561119,181.362289 105.254173,180.715775 105.244217,179.962799 
z"/>
<path fill="#DFEFF7" opacity="1.000000" stroke="none" 
	d="
M293.948303,105.955048 
	C293.383240,105.601326 293.099884,105.107674 292.860779,104.317261 
	C293.346710,104.618713 293.788361,105.216927 293.948303,105.955048 
z"/>
<path fill="#5C87A3" opacity="1.000000" stroke="none" 
	d="
M155.025146,286.339478 
	C154.870667,286.074524 154.883972,285.874817 154.871582,285.376648 
	C155.757935,285.209717 156.669983,285.341309 157.800674,285.744995 
	C157.465286,286.064209 156.911270,286.111267 155.955109,286.280640 
	C155.552979,286.403015 155.192932,286.404724 155.025146,286.339478 
z"/>
<path fill="#628EAC" opacity="1.000000" stroke="none" 
	d="
M280.902466,118.940582 
	C280.696869,119.260925 280.533936,119.196335 280.115234,119.069672 
	C279.754700,118.323105 279.650024,117.638611 279.557129,116.609665 
	C280.027618,117.028702 280.486359,117.792175 280.902466,118.940582 
z"/>
<path fill="#DFEFF7" opacity="1.000000" stroke="none" 
	d="
M287.765259,187.207092 
	C287.959686,187.663589 287.866119,188.338043 287.532684,189.267120 
	C287.354279,188.822845 287.415741,188.123947 287.765259,187.207092 
z"/>
<path fill="#CEE6F2" opacity="1.000000" stroke="none" 
	d="
M304.393585,131.841797 
	C304.044769,131.594147 303.896759,131.165161 303.764526,130.393280 
	C304.051666,130.587082 304.323029,131.123779 304.393585,131.841797 
z"/>
<path fill="#CEE6F2" opacity="1.000000" stroke="none" 
	d="
M304.188080,198.800003 
	C304.006195,198.356506 304.118073,197.721237 304.453552,196.843140 
	C304.612061,197.269623 304.546936,197.938919 304.188080,198.800003 
z"/>
<path fill="#DFEFF7" opacity="1.000000" stroke="none" 
	d="
M291.843597,102.001953 
	C291.627350,102.022446 291.383209,101.768921 291.090546,101.252098 
	C291.299927,101.235176 291.557800,101.481552 291.843597,102.001953 
z"/>
<path fill="#DFEFF7" opacity="1.000000" stroke="none" 
	d="
M299.711060,117.224159 
	C299.436340,117.265404 299.160858,116.977013 298.814758,116.393204 
	C299.066193,116.363358 299.388275,116.628944 299.711060,117.224159 
z"/>
<path fill="#658EAE" opacity="1.000000" stroke="none" 
	d="
M77.181061,155.339355 
	C77.127563,155.259506 77.210449,155.221481 77.204636,155.198486 
	C77.198830,155.175476 77.234550,155.419205 77.181061,155.339355 
z"/>
<path fill="#DFEFF7" opacity="1.000000" stroke="none" 
	d="
M295.171265,221.841980 
	C295.032562,221.627731 295.160828,221.254929 295.534515,220.704132 
	C295.666016,220.911880 295.552124,221.297653 295.171265,221.841980 
z"/>
<path fill="#DFEFF7" opacity="1.000000" stroke="none" 
	d="
M280.931763,107.159256 
	C280.998291,107.381592 280.790833,107.677742 280.322906,108.066483 
	C280.260895,107.850403 280.459320,107.541740 280.931763,107.159256 
z"/>
<path fill="#F0F5F6" opacity="1.000000" stroke="none" 
	d="
M225.154572,288.222351 
	C225.352142,288.112885 225.694458,288.253174 226.196426,288.631042 
	C226.003830,288.736389 225.651581,288.604218 225.154572,288.222351 
z"/>
<path fill="#DFEFF7" opacity="1.000000" stroke="none" 
	d="
M277.318420,115.024323 
	C277.575897,114.958321 277.840088,115.173759 278.161316,115.649818 
	C277.920624,115.708878 277.622864,115.507324 277.318420,115.024323 
z"/>
<path fill="#F8FAFA" opacity="1.000000" stroke="none" 
	d="
M125.661041,160.992279 
	C125.770912,160.553970 125.880783,160.115677 126.066635,158.959534 
	C126.406761,156.441742 126.593002,154.626297 126.947220,152.844238 
	C130.072342,137.121735 138.810684,125.081879 151.449554,115.614624 
	C151.449554,115.614624 151.277283,115.373573 151.704010,115.380272 
	C152.628204,114.987083 153.125671,114.587196 153.623123,114.187302 
	C164.405396,108.507362 175.722290,104.981331 188.066956,106.215919 
	C211.259583,108.535416 227.506149,120.580246 237.212997,141.664490 
	C237.952484,143.270752 238.938385,144.763580 239.746643,147.061646 
	C241.570572,157.006653 242.658508,166.224945 240.771454,175.573517 
	C240.619049,176.328461 240.966888,177.184357 241.082291,177.993347 
	C239.350647,182.308151 237.619019,186.622955 235.519394,191.336914 
	C228.635773,198.784317 222.120117,205.832535 215.253174,212.871521 
	C203.096619,220.035934 190.354385,223.209198 176.565125,221.677628 
	C173.023926,221.284317 169.521942,220.538284 166.001938,219.954285 
	C166.001938,219.954285 165.654419,219.838837 165.349579,219.573975 
	C164.694733,219.185120 164.344727,219.061127 163.994720,218.937119 
	C163.552353,218.905914 163.109985,218.874725 162.124344,218.654495 
	C157.303528,215.796402 153.025970,213.127335 148.748428,210.458282 
	C148.748428,210.458282 148.601196,210.374069 148.360123,210.060059 
	C132.696777,197.150558 125.568398,180.734573 125.661041,160.992279 
M205.173752,184.286545 
	C209.118057,171.342789 205.221939,163.196655 192.702240,158.439285 
	C192.702240,158.439285 192.238602,158.456406 191.758514,157.986465 
	C187.842087,156.318741 183.925659,154.651016 179.678833,152.359879 
	C175.563400,147.931213 176.455368,143.962708 182.080353,142.564117 
	C184.290878,142.014496 186.756531,141.830627 188.992630,142.188538 
	C193.012482,142.831909 196.946732,144.010086 201.643860,145.139679 
	C201.902512,141.357117 203.640472,136.304596 202.054626,134.832291 
	C198.892517,131.896622 193.905212,130.926926 189.108963,128.908310 
	C188.970291,127.013222 188.758514,124.119217 188.551224,121.286476 
	C185.064117,121.286476 182.109375,121.286476 178.550140,121.286476 
	C178.550140,123.301994 178.402649,125.105492 178.583359,126.875481 
	C178.883209,129.812225 177.845413,131.156525 174.846863,132.108124 
	C165.981735,134.921494 161.166672,141.048279 160.879883,148.950470 
	C160.587357,157.010773 164.675644,162.471390 173.838272,166.475433 
	C178.527344,168.524582 183.312195,170.444901 187.738617,172.974808 
	C190.989456,174.832809 192.474380,178.346695 189.532761,181.357315 
	C185.508224,185.476273 181.044571,187.031998 175.768005,184.872192 
	C171.844788,183.266342 167.741837,182.099640 163.365845,180.617767 
	C162.593094,183.430664 162.111618,185.870087 161.248245,188.165878 
	C159.936859,191.652924 161.116302,193.500275 164.600082,194.297821 
	C168.937531,195.290802 173.253799,196.376190 177.636978,197.435623 
	C177.988235,200.395294 177.313049,204.483154 178.944229,205.882523 
	C180.824295,207.495361 184.740906,206.734283 187.974060,207.022018 
	C188.108948,205.075943 188.376892,203.917572 188.233002,202.812836 
	C187.642487,198.279343 188.706802,195.492142 193.930344,194.406357 
	C198.924774,193.368210 202.718109,189.914078 205.173752,184.286545 
z"/>
<path fill="#2C3B40" opacity="1.000000" stroke="none" 
	d="
M125.274536,161.016693 
	C125.568398,180.734573 132.696777,197.150558 148.298737,210.001541 
	C145.025253,208.148682 141.524368,206.112137 138.157349,203.874176 
	C137.443924,203.399979 137.441605,201.895950 136.736374,201.363388 
	C127.049553,194.048309 126.162712,182.907593 124.022942,172.324753 
	C123.533157,169.902344 123.067955,167.416031 123.111481,164.968369 
	C123.134933,163.649170 124.259995,162.349548 125.274536,161.016693 
z"/>
<path fill="#333D44" opacity="1.000000" stroke="none" 
	d="
M166.073822,220.322540 
	C169.521942,220.538284 173.023926,221.284317 176.565125,221.677628 
	C190.354385,223.209198 203.096619,220.035934 215.600220,212.902527 
	C216.529541,212.967575 216.760468,212.992386 216.991394,213.017181 
	C213.834900,215.639694 210.994171,218.837616 207.462189,220.775894 
	C197.233032,226.389465 186.239960,225.907684 175.236511,223.528442 
	C172.146210,222.860229 169.172760,221.651535 166.073822,220.322540 
z"/>
<path fill="#2C3B40" opacity="1.000000" stroke="none" 
	d="
M151.088058,115.463799 
	C138.810684,125.081879 130.072342,137.121735 126.947220,152.844238 
	C126.593002,154.626297 126.406761,156.441742 126.013611,158.620560 
	C122.085625,155.152863 123.480270,150.649384 125.256325,146.857101 
	C128.358810,140.232559 133.848755,134.382507 135.527481,127.520302 
	C137.709976,118.598694 145.238327,118.751625 151.088058,115.463799 
z"/>
<path fill="#263135" opacity="1.000000" stroke="none" 
	d="
M217.374191,212.968521 
	C216.760468,212.992386 216.529541,212.967575 215.951538,212.911774 
	C222.120117,205.832535 228.635773,198.784317 235.524109,191.717957 
	C234.276199,202.556732 228.151520,209.563324 217.374191,212.968521 
z"/>
<path fill="#1E2A30" opacity="1.000000" stroke="none" 
	d="
M241.450195,177.912506 
	C240.966888,177.184357 240.619049,176.328461 240.771454,175.573517 
	C242.658508,166.224945 241.570572,157.006653 239.839325,147.405151 
	C241.177582,149.705933 243.144470,152.346329 243.391632,155.138931 
	C244.063492,162.730026 245.690445,170.513397 241.450195,177.912506 
z"/>
<path fill="#2C3B40" opacity="1.000000" stroke="none" 
	d="
M148.562592,210.830444 
	C153.025970,213.127335 157.303528,215.796402 161.795776,218.730133 
	C161.647049,219.314789 161.282761,219.902145 160.920349,219.900986 
	C160.074890,219.898315 158.692413,219.869415 158.469131,219.401642 
	C156.383377,215.032028 149.318649,216.857513 148.562592,210.830444 
z"/>
<path fill="#19242D" opacity="1.000000" stroke="none" 
	d="
M217.333374,235.203369 
	C214.101135,236.938919 210.427689,238.568893 206.373734,240.127121 
	C209.626205,238.402832 213.259186,236.750305 217.333374,235.203369 
z"/>
<path fill="#FEFEFE" opacity="1.000000" stroke="none" 
	d="
M259.823547,255.239746 
	C259.715912,256.200989 259.452942,256.931061 259.189941,257.661133 
	C258.910706,257.616760 258.631439,257.572357 258.352203,257.527985 
	C258.352203,256.718109 258.352203,255.908218 258.547852,254.759659 
	C259.051758,254.616867 259.359985,254.812729 259.823547,255.239746 
z"/>
<path fill="#FEFEFE" opacity="1.000000" stroke="none" 
	d="
M258.392639,254.027176 
	C257.523224,254.273087 256.566101,254.302628 255.608978,254.332184 
	C255.910843,253.915192 256.212708,253.498184 256.856415,253.027069 
	C257.567169,253.252228 257.936066,253.531525 258.392639,254.027176 
z"/>
<path fill="#2C3B40" opacity="1.000000" stroke="none" 
	d="
M153.235199,114.163101 
	C153.125671,114.587196 152.628204,114.987083 151.816299,115.476898 
	C151.950333,115.090851 152.398788,114.614868 153.235199,114.163101 
z"/>
<path fill="#333D44" opacity="1.000000" stroke="none" 
	d="
M164.141739,219.177765 
	C164.344727,219.061127 164.694733,219.185120 165.167725,219.595154 
	C164.956711,219.726944 164.622742,219.572678 164.141739,219.177765 
z"/>
<path fill="#628EAC" opacity="1.000000" stroke="none" 
	d="
M289.298737,145.008392 
	C288.640137,143.270126 288.218719,141.533691 287.808807,139.406631 
	C288.547028,140.733444 289.273712,142.450897 290.005188,144.582184 
	C290.010010,144.996002 289.535889,145.010239 289.298737,145.008392 
z"/>
<path fill="#5988A6" opacity="1.000000" stroke="none" 
	d="
M305.724731,186.213501 
	C305.662262,188.112137 305.335968,190.225571 304.854095,192.711639 
	C304.952637,190.865601 305.206787,188.646942 305.724731,186.213501 
z"/>
<path fill="#628EAC" opacity="1.000000" stroke="none" 
	d="
M300.148102,122.907928 
	C300.499481,123.125832 300.814270,123.700699 301.139404,124.608856 
	C300.803711,124.383057 300.457581,123.823967 300.148102,122.907928 
z"/>
<path fill="#628EAC" opacity="1.000000" stroke="none" 
	d="
M282.842590,123.141678 
	C282.459320,122.937714 282.114532,122.366440 281.765076,121.455368 
	C282.133942,121.668510 282.507507,122.221443 282.842590,123.141678 
z"/>
<path fill="#628EAC" opacity="1.000000" stroke="none" 
	d="
M306.158508,146.866272 
	C306.437408,146.808716 306.646606,147.122696 306.866302,147.724396 
	C306.876770,148.012100 306.440369,148.000473 306.222229,147.994812 
	C306.032318,147.738693 306.060577,147.488266 306.158508,146.866272 
z"/>
<path fill="#628EAC" opacity="1.000000" stroke="none" 
	d="
M281.805481,120.927734 
	C281.587830,120.963417 281.332153,120.744850 281.050293,120.263153 
	C281.271881,120.224510 281.519684,120.448997 281.805481,120.927734 
z"/>
<path fill="#2D3B42" opacity="1.000000" stroke="none" 
	d="
M192.238602,158.456406 
	C192.238602,158.456406 192.702240,158.439285 192.877197,158.987366 
	C193.343826,160.112915 193.487854,161.005280 193.948914,161.221436 
	C203.570740,165.732346 205.553909,173.406464 203.242401,183.014893 
	C203.121201,183.518707 204.249786,184.323166 204.796539,184.987656 
	C202.718109,189.914078 198.924774,193.368210 193.930344,194.406357 
	C188.706802,195.492142 187.642487,198.279343 188.233002,202.812836 
	C188.376892,203.917572 188.108948,205.075943 187.974060,207.022018 
	C184.740906,206.734283 180.824295,207.495361 178.944229,205.882523 
	C177.313049,204.483154 177.988235,200.395294 177.636978,197.435623 
	C173.253799,196.376190 168.937531,195.290802 164.600082,194.297821 
	C161.116302,193.500275 159.936859,191.652924 161.248245,188.165878 
	C162.111618,185.870087 162.593094,183.430664 163.365845,180.617767 
	C167.741837,182.099640 171.844788,183.266342 175.768005,184.872192 
	C181.044571,187.031998 185.508224,185.476273 189.532761,181.357315 
	C192.474380,178.346695 190.989456,174.832809 187.738617,172.974808 
	C183.312195,170.444901 178.527344,168.524582 173.838272,166.475433 
	C164.675644,162.471390 160.587357,157.010773 160.879883,148.950470 
	C161.166672,141.048279 165.981735,134.921494 174.846863,132.108124 
	C177.845413,131.156525 178.883209,129.812225 178.583359,126.875481 
	C178.402649,125.105492 178.550140,123.301994 178.550140,121.286476 
	C182.109375,121.286476 185.064117,121.286476 188.551224,121.286476 
	C188.758514,124.119217 188.970291,127.013222 189.108963,128.908310 
	C193.905212,130.926926 198.892517,131.896622 202.054626,134.832291 
	C203.640472,136.304596 201.902512,141.357117 201.643860,145.139679 
	C196.946732,144.010086 193.012482,142.831909 188.992630,142.188538 
	C186.756531,141.830627 184.290878,142.014496 182.080353,142.564117 
	C176.455368,143.962708 175.563400,147.931213 179.880875,153.026581 
	C183.464188,157.864929 188.795166,159.953842 192.238602,158.456406 
z"/>
<path fill="#2A3337" opacity="1.000000" stroke="none" 
	d="
M204.985138,184.637100 
	C204.249786,184.323166 203.121201,183.518707 203.242401,183.014893 
	C205.553909,173.406464 203.570740,165.732346 193.948914,161.221436 
	C193.487854,161.005280 193.343826,160.112915 193.019470,159.170593 
	C205.221939,163.196655 209.118057,171.342789 204.985138,184.637100 
z"/>
<path fill="#2A3337" opacity="1.000000" stroke="none" 
	d="
M191.998566,158.221436 
	C188.795166,159.953842 183.464188,157.864929 180.046082,153.338287 
	C183.925659,154.651016 187.842087,156.318741 191.998566,158.221436 
z"/>
</svg>